<svg width="92" height="28" viewBox="0 0 92 28" fill="none" xmlns="http://www.w3.org/2000/svg">
            <path d="M30.4419 13.6822C30.4419 11.3983 28.3216 9.39312 24.9477 8.07747C25.4931 4.49784 24.8137 1.6602 22.8313 0.518266C21.061 -0.502415 18.6093 -0.00293186 15.9276 1.92622C15.6902 2.09634 15.4546 2.27732 15.2191 2.46553C14.9853 2.27732 14.7498 2.09634 14.5142 1.92622C11.8324 -0.00293186 9.38077 -0.504225 7.61043 0.518266C5.62991 1.6602 4.9504 4.49602 5.49763 8.07202C2.12005 9.38949 0 11.3965 0 13.6822C0 15.966 2.12005 17.9712 5.49401 19.2869C4.9486 22.8665 5.62811 25.7042 7.61043 26.846C8.21021 27.1918 8.88971 27.3636 9.62901 27.3636C11.0696 27.3636 12.742 26.7121 14.5142 25.4381C14.7516 25.268 14.9871 25.0869 15.2227 24.8988C15.4564 25.0869 15.692 25.268 15.9276 25.4381C17.6997 26.7139 19.3722 27.3636 20.8127 27.3636C21.552 27.3636 22.2315 27.1918 22.8313 26.846C24.6017 25.8253 25.3934 23.4546 25.062 20.17C25.033 19.8805 24.9948 19.5873 24.9477 19.2887C28.3236 17.973 30.4419 15.9678 30.4419 13.6822ZM16.7756 3.10073C18.2832 2.0167 19.6857 1.45208 20.8127 1.45208C21.3002 1.45208 21.735 1.55705 22.1065 1.77059C23.4039 2.51981 23.9584 4.66796 23.5615 7.59607C22.2569 7.19613 20.8127 6.8903 19.2598 6.69482C18.3303 5.47328 17.3445 4.37116 16.3352 3.4301C16.482 3.31791 16.6288 3.2057 16.7756 3.10073ZM8.33524 1.77059C8.70671 1.55705 9.14157 1.45208 9.62901 1.45208C10.7561 1.45208 12.1586 2.0149 13.6662 3.10073C13.8129 3.2057 13.9597 3.31609 14.1065 3.4301C13.0972 4.37116 12.1133 5.47148 11.1837 6.69302C9.63263 6.88847 8.18666 7.19613 6.88202 7.59427C6.48517 4.66796 7.03785 2.51981 8.33524 1.77059ZM1.44961 13.6822C1.44961 12.1855 3.03692 10.631 5.77487 9.51075C6.0811 10.8373 6.53772 12.2398 7.14112 13.6785C6.5341 15.1191 6.07748 16.5234 5.77125 17.8518C3.03692 16.7315 1.44961 15.1788 1.44961 13.6822ZM13.6662 24.2636C11.5063 25.8163 9.56377 26.3012 8.33524 25.5938C7.03785 24.8446 6.48337 22.6964 6.8802 19.7682C8.18483 20.1682 9.62901 20.474 11.1819 20.6695C12.1115 21.891 13.0972 22.9932 14.1065 23.9342C13.9597 24.0482 13.8129 24.1586 13.6662 24.2636ZM15.2209 22.9913C13.4089 21.3336 11.6675 19.1185 10.198 16.5777C9.80477 15.8991 9.0098 14.1932 8.68726 13.5327C8.42995 14.148 8.17579 14.7124 7.97646 15.3132C8.13955 15.6155 8.7683 16.9976 8.94226 17.2998C9.28654 17.8952 9.64715 18.4743 10.0186 19.0353C8.97668 18.8525 8.0127 18.6173 7.13568 18.3404C7.63398 16.0927 8.62879 13.5012 10.198 10.7866C10.5839 10.1188 11.4225 8.62779 11.8429 8.00887C11.1797 8.09393 10.6471 8.06578 10.0238 8.19425C9.84256 8.48742 9.11622 9.7623 8.94226 10.0645C8.59434 10.6653 8.27545 11.2662 7.97646 11.8634C7.61405 10.8699 7.33681 9.91796 7.13933 9.02033C9.33729 8.3272 12.0825 7.89106 15.2209 7.89106C16.0055 7.89106 17.6441 7.87518 18.3761 7.92766C17.972 7.3974 17.6255 6.91742 17.2033 6.4433C16.8608 6.43243 15.5706 6.4433 15.2209 6.4433C14.5287 6.4433 13.851 6.4668 13.186 6.50662C13.8456 5.72301 14.5287 5.00637 15.2209 4.37296C17.0311 6.03067 18.7742 8.24576 20.2438 10.7866C20.6297 11.4544 21.4637 13.0089 21.7916 13.6822C22.0507 13.0668 22.2959 12.5057 22.497 11.9012C22.3339 11.5972 21.6734 10.3631 21.4995 10.0627C21.1552 9.46733 20.7946 8.88821 20.4231 8.32902C21.4651 8.5118 22.429 8.74705 23.3061 9.02395C22.8078 11.2716 21.8129 13.8631 20.2438 16.5777C19.8578 17.2455 18.7594 18.7747 18.339 19.3936C19.0022 19.3086 19.7204 19.1814 20.3437 19.0529C20.5249 18.7598 21.3255 17.602 21.4995 17.2998C21.8456 16.7026 22.1645 16.1054 22.4598 15.51C22.8114 16.4764 23.0904 17.4265 23.2934 18.3458C21.0972 19.0389 18.3557 19.4733 15.2209 19.4733C14.4363 19.4733 12.6121 19.3702 11.88 19.3177C12.2841 19.8479 12.7193 20.4 13.1415 20.8742C13.484 20.885 14.8712 20.921 15.2209 20.921C15.913 20.921 16.5908 20.8975 17.2557 20.8577C16.5944 21.6413 15.913 22.3579 15.2209 22.9913ZM22.1065 25.5938C20.878 26.3032 18.9337 25.8181 16.7756 24.2636C16.6288 24.1586 16.482 24.0482 16.3352 23.9342C17.3445 22.9932 18.3285 21.8929 19.258 20.6713C20.8073 20.4758 22.2497 20.17 23.5525 19.7719C23.5779 19.9546 23.6032 20.1374 23.6213 20.3166C23.8877 22.9624 23.3351 24.8843 22.1065 25.5938ZM24.6705 17.8536C24.3588 16.5071 23.8968 15.1046 23.3006 13.6876C23.9076 12.2471 24.3643 10.8427 24.6705 9.51437C27.4047 10.6346 28.9922 12.1855 28.9922 13.6822C28.9922 15.1788 27.4067 16.7315 24.6705 17.8536Z" fill="#6b7280"></path>
            <path d="M36.4419 20.7643V6.35228H42.656C44.4749 6.35228 45.8372 6.76063 46.7434 7.57732C47.6493 8.38713 48.1023 9.48177 48.1023 10.8612C48.1023 11.9043 47.843 12.7897 47.3243 13.5171C46.8056 14.2446 46.024 14.7627 44.9798 15.0716C45.609 15.9569 46.2247 16.8765 46.8264 17.8304C47.4281 18.7844 48.0055 19.7623 48.5587 20.7643H46.0172C45.5123 19.7898 44.9798 18.8393 44.4196 17.9128C43.8662 16.9863 43.3232 16.1387 42.7908 15.3701C42.7493 15.3701 42.7043 15.3701 42.656 15.3701H38.6204V20.7643H36.4419ZM42.4486 8.35969H38.6204V13.4039H42.4486C43.6242 13.4039 44.4886 13.198 45.0421 12.7862C45.5953 12.3676 45.872 11.7328 45.872 10.8818C45.872 10.0308 45.5953 9.39941 45.0421 8.98764C44.4886 8.569 43.6242 8.35969 42.4486 8.35969ZM55.0131 21.0114C54.0172 21.0114 53.1423 20.7849 52.3884 20.3319C51.6414 19.879 51.057 19.2476 50.6353 18.4378C50.2203 17.628 50.0128 16.6912 50.0128 15.6275C50.0128 14.5637 50.2203 13.6269 50.6353 12.8171C51.057 12.0004 51.6414 11.3656 52.3884 10.9127C53.1423 10.4529 54.0172 10.223 55.0131 10.223H55.2413C56.1472 10.223 56.9427 10.446 57.6274 10.8921C58.3188 11.3313 58.8582 11.9695 59.2457 12.8068C59.6329 13.6372 59.8266 14.6392 59.8266 15.8128V16.4407H52.1601C52.2846 17.2848 52.6028 17.9505 53.1145 18.4378C53.6332 18.9182 54.3077 19.1584 55.1376 19.1584H55.3451C55.843 19.1584 56.3202 19.0589 56.7767 18.8599C57.2331 18.654 57.6169 18.3795 57.9281 18.0363L59.2042 19.3746C58.7337 19.8756 58.1528 20.2736 57.4614 20.5687C56.7767 20.8638 56.0365 21.0114 55.2413 21.0114H55.0131ZM54.9509 12.0759C54.2107 12.0759 53.5917 12.3195 53.0938 12.8068C52.6028 13.2872 52.2916 13.946 52.1601 14.7833H57.7413C57.6791 14.0215 57.4266 13.3799 56.9842 12.8583C56.5485 12.3367 55.9398 12.0759 55.1583 12.0759H54.9509ZM65.0759 20.9702C63.983 20.9702 63.1323 20.6922 62.5239 20.1364C61.9222 19.5736 61.6212 18.8358 61.6212 17.9231C61.6212 17.0172 61.9602 16.2588 62.6379 15.648C63.3226 15.0372 64.412 14.7319 65.9058 14.7319H68.7275V14.701C68.7275 12.9715 67.9251 12.1068 66.3208 12.1068C65.6498 12.1068 65.0826 12.2269 64.6194 12.4671C64.163 12.7073 63.7928 13.0436 63.5093 13.476L62.0882 12.3333C62.5306 11.6539 63.1116 11.1323 63.831 10.7686C64.5572 10.4048 65.3801 10.223 66.3 10.223H66.5282C67.8006 10.223 68.8243 10.5867 69.599 11.3142C70.3734 12.0416 70.7608 13.1294 70.7608 14.5774V20.7643H68.769V19.0863C68.3678 19.6903 67.8526 20.1569 67.2232 20.4864C66.5937 20.8089 65.8781 20.9702 65.0759 20.9702ZM65.5323 19.1378C66.3345 19.1378 67.002 18.9594 67.5344 18.6025C68.0668 18.2388 68.4646 17.7481 68.7275 17.1304V16.3481H65.9888C65.1726 16.3481 64.5882 16.4784 64.2355 16.7392C63.8897 16.9932 63.7168 17.3397 63.7168 17.779C63.7168 18.6849 64.322 19.1378 65.5323 19.1378ZM78.1641 21.0114C77.1682 21.0114 76.2866 20.7952 75.5189 20.3628C74.7512 19.9305 74.1495 19.3128 73.7138 18.5099C73.2848 17.7 73.0706 16.7392 73.0706 15.6275C73.0706 14.5088 73.2848 13.548 73.7138 12.7451C74.1425 11.9352 74.7372 11.3142 75.4981 10.8818C76.2658 10.4426 77.1545 10.223 78.1641 10.223H78.3924C79.1948 10.223 79.952 10.4288 80.6644 10.8406C81.3836 11.2455 81.9645 11.8048 82.4072 12.5186L80.7991 13.6304C80.5019 13.1637 80.1457 12.8 79.7307 12.5392C79.3158 12.2715 78.8453 12.1377 78.3199 12.1377H78.1124C77.2132 12.1377 76.5043 12.4534 75.9856 13.0848C75.4739 13.7093 75.2179 14.5534 75.2179 15.6172C75.2179 16.674 75.4739 17.5182 75.9856 18.1496C76.5043 18.7809 77.2132 19.0966 78.1124 19.0966H78.3199C78.8453 19.0966 79.3295 18.9799 79.7722 18.7466C80.2147 18.5133 80.5951 18.201 80.9134 17.8098L82.4072 19.0657C81.9438 19.6697 81.3593 20.1466 80.6539 20.4967C79.9555 20.8398 79.2015 21.0114 78.3924 21.0114H78.1641ZM89.352 20.8981C88.1209 20.8981 87.184 20.5893 86.5408 19.9716C85.8976 19.354 85.5759 18.4035 85.5759 17.1201V12.2612H83.5426V10.47H85.5759V7.4023H87.6507V10.47H91.1469V12.2612H87.6507V16.8422C87.6507 17.652 87.8202 18.2147 88.1592 18.5304C88.4979 18.8461 88.9993 19.004 89.6633 19.004C89.9815 19.004 90.265 18.9902 90.5139 18.9628C90.7699 18.9353 91.0326 18.901 91.3024 18.8599V20.6614C91.0256 20.73 90.7144 20.7849 90.3687 20.8261C90.023 20.8741 89.684 20.8981 89.352 20.8981Z" fill="#6b7280"></path>
            <path d="M15.1898 16.7765C16.8135 16.7765 18.1298 15.4274 18.1298 13.7632C18.1298 12.0991 16.8135 10.75 15.1898 10.75C13.5662 10.75 12.2499 12.0991 12.2499 13.7632C12.2499 15.4274 13.5662 16.7765 15.1898 16.7765Z" fill="#6b7280"></path>
          </svg>