<svg xmlns="http://www.w3.org/2000/svg" fill="none" viewBox="0 0 107 34" height="30" width="90">
            <g>
              <path fill="none" d="M113 0H-6V34H113V0Z"></path>
              <path fill="#6b7280" d="M99.1866 19.4596V27.2005H94.913V19.4596"></path>
              <path fill="#4b5563" d="M94.913 19.4596L102.144 6.80058H106.684L99.1866 19.4596H94.913Z"></path>
              <path fill="#6b7280" d="M94.913 19.4596L87.481 6.80058H92.1564L97.1916 15.4755L94.913 19.4596Z"></path>
              <path fill="#6b7280" d="M79.8149 13.9272V27.2006H75.4768V16.1933L79.8149 13.9272Z"></path>
              <path fill="#d1d5db" d="M75.4768 16.1821L86.4745 10.522L84.6165 7.36162L75.4768 11.8535V16.1821Z"></path>
              <path fill="#4b5563" d="M75.4768 10.522H68.8497V6.80058H84.2859L86.4745 10.522H79.8149H75.4768Z"></path>
              <path fill="#4b5563" d="M66.3625 6.80058H62.0568V27.2041H66.3625V6.80058Z"></path>
              <path fill="#6b7280" d="M44.504 12.8762V27.2006H40.3671V6.80058L44.504 12.8762Z"></path>
              <path fill="#4b5563" d="M45.1436 6.80058L54.2542 20.7379V27.2006L40.3671 6.80058H45.1436Z"></path>
              <path fill="#6b7280" d="M54.2542 19.6904V6.80058H58.3912V27.2006H54.2542V19.6904Z"></path>
              <path fill="#d1d5db" d="M21.7611 27.5344L31.8982 22.2038L30.6483 18.9483L23.9746 22.0783L21.7611 27.5344Z"></path>
              <path fill="#6b7280" d="M28.0289 12.0844L21.761 27.5344L18.5372 24.7433L26.0055 6.80058L28.0289 12.0844Z"></path>
              <path fill="#4b5563" d="M26.0056 6.80058H30.2788L38.1822 27.2006H33.8082L26.0056 6.80058Z"></path>
              <path fill="#4b5563" d="M2.49726 9.15485C2.49726 11.9956 4.27269 13.6858 7.82714 14.5771L11.5937 15.44C14.9576 16.2034 17.0062 18.0996 17.0062 21.1889C17.0324 22.5348 16.5895 23.8486 15.7519 24.9102C15.7519 21.8281 14.1382 20.1627 10.2459 19.1613L6.54769 18.3304C3.58625 17.6628 1.30047 16.104 1.30047 12.7484C1.28488 11.4525 1.70591 10.1884 2.49726 9.15485Z"></path>
              <path fill="#6b7280" d="M13.4374 20.4325C15.0439 21.4481 15.7483 22.8685 15.7483 24.9067C14.4185 26.5898 12.0824 27.5344 9.33662 27.5344C4.71476 27.5344 1.48015 25.2866 0.761353 21.3806H5.19992C5.77139 23.1739 7.28445 24.0047 9.30427 24.0047C11.7697 24.0047 13.4086 22.7051 13.4409 20.4254"></path>
              <path fill="#6b7280" d="M4.80461 13.3662C4.071 12.9355 3.46917 12.3165 3.06292 11.575C2.65666 10.8336 2.46122 9.99722 2.49726 9.15484C3.78033 7.48591 6.01219 6.4668 8.73286 6.4668C13.441 6.4668 16.1652 8.92404 16.8373 12.3826H12.5676C12.0968 11.0191 10.918 9.95734 8.7688 9.95734C6.47223 9.95734 4.90525 11.2783 4.81539 13.3662"></path>
            </g>
          </svg>