<svg xmlns="http://www.w3.org/2000/svg" fill="none" viewBox="0 0 914 256" height="256" width="914">
<g clip-path="url(#clip0_7329_359)">
<path stroke-linejoin="round" stroke-linecap="round" stroke-width="32" stroke="#6B7280" d="M208 128L128 208"></path>
<path stroke-linejoin="round" stroke-linecap="round" stroke-width="32" stroke="#6B7280" d="M192 40L40 192"></path>
</g>
<path fill="#6B7280" d="M895.58 174V104.182H912.034V174H895.58ZM903.852 94.2727C901.246 94.2727 899.004 93.4091 897.125 91.6818C895.246 89.9242 894.307 87.8181 894.307 85.3636C894.307 82.8788 895.246 80.7727 897.125 79.0454C899.004 77.2878 901.246 76.4091 903.852 76.4091C906.489 76.4091 908.731 77.2878 910.58 79.0454C912.458 80.7727 913.398 82.8788 913.398 85.3636C913.398 87.8181 912.458 89.9242 910.58 91.6818C908.731 93.4091 906.489 94.2727 903.852 94.2727Z"></path>
<path fill="#6B7280" d="M862.205 144.636V104.182H878.659V174H862.705V161.591H861.977C860.402 165.5 857.811 168.697 854.205 171.182C850.629 173.667 846.22 174.909 840.977 174.909C836.402 174.909 832.356 173.894 828.841 171.864C825.356 169.803 822.629 166.818 820.659 162.909C818.689 158.97 817.705 154.212 817.705 148.636V104.182H834.159V146.091C834.159 150.515 835.371 154.03 837.795 156.636C840.22 159.242 843.402 160.545 847.341 160.545C849.765 160.545 852.114 159.954 854.386 158.773C856.659 157.591 858.523 155.833 859.977 153.5C861.462 151.136 862.205 148.182 862.205 144.636Z"></path>
<path fill="#6B7280" d="M807.205 76.5454L777.205 188H762.795L792.795 76.5454H807.205Z"></path>
<path fill="#6B7280" d="M707.659 133.091V174H691.205V104.182H706.932V116.045H707.75C709.356 112.136 711.917 109.03 715.432 106.727C718.977 104.424 723.356 103.273 728.568 103.273C733.386 103.273 737.583 104.303 741.159 106.364C744.765 108.424 747.553 111.409 749.523 115.318C751.523 119.227 752.508 123.97 752.477 129.545V174H736.023V132.091C736.023 127.424 734.811 123.773 732.386 121.136C729.992 118.5 726.674 117.182 722.432 117.182C719.553 117.182 716.992 117.818 714.75 119.091C712.538 120.333 710.795 122.136 709.523 124.5C708.28 126.864 707.659 129.727 707.659 133.091Z"></path>
<path fill="#6B7280" d="M647.784 175.364C640.814 175.364 634.83 173.833 629.83 170.773C624.86 167.712 621.027 163.485 618.33 158.091C615.663 152.667 614.33 146.424 614.33 139.364C614.33 132.273 615.693 126.015 618.42 120.591C621.148 115.136 624.996 110.894 629.966 107.864C634.966 104.803 640.875 103.273 647.693 103.273C653.36 103.273 658.375 104.318 662.739 106.409C667.133 108.47 670.633 111.394 673.239 115.182C675.845 118.939 677.33 123.333 677.693 128.364H661.966C661.33 125 659.814 122.197 657.421 119.955C655.057 117.682 651.89 116.545 647.921 116.545C644.557 116.545 641.602 117.455 639.057 119.273C636.511 121.061 634.527 123.636 633.102 127C631.708 130.364 631.011 134.394 631.011 139.091C631.011 143.848 631.708 147.939 633.102 151.364C634.496 154.758 636.451 157.379 638.966 159.227C641.511 161.045 644.496 161.955 647.921 161.955C650.345 161.955 652.511 161.5 654.421 160.591C656.36 159.651 657.981 158.303 659.284 156.545C660.587 154.788 661.481 152.651 661.966 150.136H677.693C677.299 155.076 675.845 159.455 673.33 163.273C670.814 167.061 667.39 170.03 663.057 172.182C658.724 174.303 653.633 175.364 647.784 175.364Z"></path>
<path fill="#6B7280" d="M562.614 175.227C557.129 175.227 552.22 173.818 547.886 171C543.553 168.182 540.129 164.091 537.614 158.727C535.099 153.364 533.841 146.848 533.841 139.182C533.841 131.424 535.114 124.879 537.659 119.545C540.235 114.182 543.705 110.136 548.068 107.409C552.432 104.651 557.295 103.273 562.659 103.273C566.75 103.273 570.114 103.97 572.75 105.364C575.386 106.727 577.477 108.379 579.023 110.318C580.568 112.227 581.765 114.03 582.614 115.727H583.296V80.9091H599.796V174H583.614V163H582.614C581.765 164.697 580.538 166.5 578.932 168.409C577.326 170.288 575.205 171.894 572.568 173.227C569.932 174.561 566.614 175.227 562.614 175.227ZM567.205 161.727C570.689 161.727 573.659 160.788 576.114 158.909C578.568 157 580.432 154.348 581.705 150.955C582.977 147.561 583.614 143.606 583.614 139.091C583.614 134.576 582.977 130.651 581.705 127.318C580.462 123.985 578.614 121.394 576.159 119.545C573.735 117.697 570.75 116.773 567.205 116.773C563.538 116.773 560.477 117.727 558.023 119.636C555.568 121.545 553.72 124.182 552.477 127.545C551.235 130.909 550.614 134.758 550.614 139.091C550.614 143.455 551.235 147.348 552.477 150.773C553.75 154.167 555.614 156.848 558.068 158.818C560.553 160.758 563.599 161.727 567.205 161.727Z"></path>
<path fill="#6B7280" d="M483.295 175.409C478.871 175.409 474.886 174.621 471.341 173.045C467.826 171.439 465.038 169.076 462.977 165.955C460.947 162.833 459.932 158.985 459.932 154.409C459.932 150.47 460.659 147.212 462.114 144.636C463.568 142.061 465.553 140 468.068 138.455C470.583 136.909 473.417 135.742 476.568 134.955C479.75 134.136 483.038 133.545 486.432 133.182C490.523 132.758 493.841 132.379 496.386 132.045C498.932 131.682 500.78 131.136 501.932 130.409C503.114 129.651 503.705 128.485 503.705 126.909V126.636C503.705 123.212 502.689 120.561 500.659 118.682C498.629 116.803 495.705 115.864 491.886 115.864C487.856 115.864 484.659 116.742 482.295 118.5C479.962 120.258 478.386 122.333 477.568 124.727L462.205 122.545C463.417 118.303 465.417 114.758 468.205 111.909C470.992 109.03 474.402 106.879 478.432 105.455C482.462 104 486.917 103.273 491.795 103.273C495.159 103.273 498.508 103.667 501.841 104.455C505.174 105.242 508.22 106.545 510.977 108.364C513.735 110.151 515.947 112.591 517.614 115.682C519.311 118.773 520.159 122.636 520.159 127.273V174H504.341V164.409H503.795C502.795 166.348 501.386 168.167 499.568 169.864C497.78 171.53 495.523 172.879 492.795 173.909C490.098 174.909 486.932 175.409 483.295 175.409ZM487.568 163.318C490.871 163.318 493.735 162.667 496.159 161.364C498.583 160.03 500.447 158.273 501.75 156.091C503.083 153.909 503.75 151.53 503.75 148.955V140.727C503.235 141.151 502.356 141.545 501.114 141.909C499.902 142.273 498.538 142.591 497.023 142.864C495.508 143.136 494.008 143.379 492.523 143.591C491.038 143.803 489.75 143.985 488.659 144.136C486.205 144.47 484.008 145.015 482.068 145.773C480.129 146.53 478.598 147.591 477.477 148.955C476.356 150.288 475.795 152.015 475.795 154.136C475.795 157.167 476.902 159.455 479.114 161C481.326 162.545 484.144 163.318 487.568 163.318Z"></path>
<path fill="#6B7280" d="M401.159 133.091V174H384.705V80.9091H400.795V116.045H401.614C403.25 112.106 405.78 109 409.205 106.727C412.659 104.424 417.053 103.273 422.386 103.273C427.235 103.273 431.462 104.288 435.068 106.318C438.674 108.348 441.462 111.318 443.432 115.227C445.432 119.136 446.432 123.909 446.432 129.545V174H429.977V132.091C429.977 127.394 428.765 123.742 426.341 121.136C423.947 118.5 420.583 117.182 416.25 117.182C413.341 117.182 410.735 117.818 408.432 119.091C406.159 120.333 404.371 122.136 403.068 124.5C401.795 126.864 401.159 129.727 401.159 133.091Z"></path>
<path fill="#6B7280" d="M369.636 122.636L354.636 124.273C354.212 122.758 353.47 121.333 352.409 120C351.379 118.667 349.985 117.591 348.227 116.773C346.47 115.955 344.318 115.545 341.773 115.545C338.348 115.545 335.47 116.288 333.136 117.773C330.833 119.258 329.697 121.182 329.727 123.545C329.697 125.576 330.439 127.227 331.955 128.5C333.5 129.773 336.045 130.818 339.591 131.636L351.5 134.182C358.106 135.606 363.015 137.864 366.227 140.955C369.47 144.045 371.106 148.091 371.136 153.091C371.106 157.485 369.818 161.364 367.273 164.727C364.758 168.061 361.258 170.667 356.773 172.545C352.288 174.424 347.136 175.364 341.318 175.364C332.773 175.364 325.894 173.576 320.682 170C315.47 166.394 312.364 161.379 311.364 154.955L327.409 153.409C328.136 156.561 329.682 158.939 332.045 160.545C334.409 162.151 337.485 162.955 341.273 162.955C345.182 162.955 348.318 162.151 350.682 160.545C353.076 158.939 354.273 156.955 354.273 154.591C354.273 152.591 353.5 150.939 351.955 149.636C350.439 148.333 348.076 147.333 344.864 146.636L332.955 144.136C326.258 142.742 321.303 140.394 318.091 137.091C314.879 133.758 313.288 129.545 313.318 124.455C313.288 120.151 314.455 116.424 316.818 113.273C319.212 110.091 322.53 107.636 326.773 105.909C331.045 104.151 335.97 103.273 341.545 103.273C349.727 103.273 356.167 105.015 360.864 108.5C365.591 111.985 368.515 116.697 369.636 122.636Z"></path>
<defs>
<clipPath id="clip0_7329_359">
<rect fill="white" height="256" width="256"></rect>
</clipPath>
</defs>
</svg>
