<svg xmlns="http://www.w3.org/2000/svg" fill="none" viewBox="0 0 140 17" height="17" width="140">
            <g>
              <path fill="#6b7280" d="M14.4048 0C10.5632 0 8.1629 1.85465 7.2021 5.56394C8.64274 3.70929 10.3233 3.01394 12.2438 3.47732C13.3395 3.74165 14.1231 4.50939 14.9896 5.35939C16.402 6.74352 18.0369 8.34536 21.6069 8.34536C25.4478 8.34536 27.8487 6.49071 28.8089 2.78197C27.3689 4.63661 25.6883 5.33197 23.7678 4.86803C22.6715 4.60371 21.888 3.83597 21.0214 2.98652C19.609 1.60129 17.9748 0 14.4048 0ZM7.2021 8.34536C3.36113 8.34536 0.960242 10.2 0 13.9093C1.44065 12.0546 3.12121 11.3593 5.04113 11.8227C6.13742 12.087 6.92097 12.8547 7.7875 13.7047C9.19992 15.0889 10.8342 16.6907 14.4048 16.6907C18.2457 16.6907 20.6466 14.8366 21.6069 11.1273C20.1662 12.982 18.4856 13.6773 16.5652 13.2139C15.4694 12.9491 14.6859 12.1813 13.8194 11.3319C12.4069 9.94774 10.7721 8.34536 7.2021 8.34536Z"></path>
              <path fill="#6b7280" d="M43.2114 7.03306H40.6976V11.7311C40.6976 12.9842 41.5489 12.9644 43.2114 12.886V14.7851C39.8458 15.1766 38.5079 14.2762 38.5079 11.7311V7.03306H36.6427V4.9969H38.5079V2.36793L40.6976 1.74113V4.9969H43.2114V7.03306ZM52.7935 4.9969H54.9827V14.7851H52.7935V13.3757C52.0229 14.4127 50.8267 15.0395 49.2455 15.0395C46.4884 15.0395 44.1976 12.7884 44.1976 9.89071C44.1976 6.97438 46.4884 4.74245 49.2455 4.74245C50.8267 4.74245 52.0229 5.36871 52.7935 6.38706V4.9969ZM49.5904 13.0231C51.415 13.0231 52.7935 11.7114 52.7935 9.89071C52.7935 8.07006 51.415 6.75887 49.5904 6.75887C47.7659 6.75887 46.3874 8.07061 46.3874 9.89071C46.3874 11.7114 47.7659 13.0231 49.5904 13.0231ZM58.6317 3.52887C57.8617 3.52887 57.2334 2.90261 57.2334 2.17819C57.2352 1.81917 57.3834 1.47547 57.6454 1.22233C57.9075 0.969184 58.2622 0.827219 58.6317 0.827513C59.0014 0.827074 59.3562 0.968974 59.6184 1.22213C59.8806 1.4753 60.0288 1.81908 60.0306 2.17819C60.0306 2.90206 59.4023 3.52887 58.6317 3.52887ZM57.5371 14.7851V4.9969H59.7269V14.7851H57.5371ZM62.261 14.7851V0.493546H64.4502V14.7845H62.261V14.7851ZM78.6619 4.9969H80.973L77.7903 14.7851H75.6412L73.5327 8.18797L71.4039 14.7851H69.2554L66.0721 4.9969H68.3832L70.35 11.7503L72.4788 4.9969H74.5669L76.6748 11.7503L78.6619 4.9969ZM83.6895 3.52887C82.9189 3.52887 82.2906 2.90261 82.2906 2.17819C82.2924 1.81908 82.4406 1.4753 82.7028 1.22213C82.965 0.968974 83.3198 0.827074 83.6895 0.827513C84.0591 0.827074 84.4139 0.968974 84.6761 1.22213C84.9383 1.4753 85.0865 1.81908 85.0883 2.17819C85.0883 2.90206 84.46 3.52887 83.6895 3.52887ZM82.5949 14.7851V4.9969H84.7841V14.7851H82.5949ZM92.65 4.74245C94.9205 4.74245 96.5424 6.23022 96.5424 8.77529V14.7845H94.3532V8.99026C94.3532 7.50248 93.4612 6.71993 92.0827 6.71993C90.6432 6.71993 89.5079 7.54196 89.5079 9.53864V14.7851H87.3182V4.9969H89.5079V6.24997C90.1769 5.23216 91.2715 4.74245 92.65 4.74245ZM106.922 1.08196H109.112V14.7845H106.922V13.3752C106.152 14.4127 104.956 15.039 103.375 15.039C100.618 15.039 98.3268 12.7878 98.3268 9.89016C98.3268 6.97384 100.618 4.7419 103.375 4.7419C104.956 4.7419 106.152 5.36816 106.922 6.38651V1.08196ZM103.719 13.0231C105.544 13.0231 106.922 11.7114 106.922 9.89071C106.922 8.07006 105.544 6.75887 103.719 6.75887C101.895 6.75887 100.516 8.07061 100.516 9.89071C100.516 11.7114 101.895 13.0231 103.719 13.0231ZM116.451 15.0395C113.389 15.0395 111.098 12.7884 111.098 9.89071C111.098 6.97438 113.389 4.74245 116.451 4.74245C118.437 4.74245 120.161 5.74051 120.971 7.26777L119.086 8.32506C118.64 7.40487 117.647 6.81755 116.43 6.81755C114.646 6.81755 113.288 8.12929 113.288 9.89071C113.288 11.6527 114.646 12.9644 116.43 12.9644C117.647 12.9644 118.64 12.3574 119.126 11.4569L121.012 12.4944C120.161 14.0409 118.437 15.0395 116.451 15.0395ZM124.62 7.69826C124.62 9.47997 130.074 8.40293 130.074 12.025C130.074 13.9828 128.31 15.0395 126.121 15.0395C124.094 15.0395 122.634 14.1583 121.985 12.7489L123.871 11.6922C124.195 12.5729 125.006 13.1015 126.121 13.1015C127.094 13.1015 127.844 12.7884 127.844 12.0047C127.844 10.2631 122.39 11.2419 122.39 7.73774C122.39 5.89735 124.033 4.74245 126.1 4.74245C127.763 4.74245 129.141 5.48661 129.851 6.77861L128.006 7.77667C127.641 7.01332 126.931 6.66071 126.1 6.66071C125.31 6.66071 124.62 6.99358 124.62 7.69826ZM133.966 7.69826C133.966 9.47997 139.42 8.40293 139.42 12.025C139.42 13.9828 137.656 15.0395 135.466 15.0395C133.439 15.0395 131.98 14.1583 131.331 12.7489L133.216 11.6922C133.541 12.5729 134.351 13.1015 135.466 13.1015C136.44 13.1015 137.19 12.7884 137.19 12.0047C137.19 10.2631 131.737 11.2419 131.737 7.73774C131.737 5.89735 133.378 4.74245 135.447 4.74245C137.109 4.74245 138.487 5.48661 139.197 6.77861L137.352 7.77667C136.987 7.01332 136.278 6.66071 135.447 6.66071C134.656 6.66071 133.966 6.99358 133.966 7.69826Z"></path>
            </g>
          </svg>